{
    "streams": [
        {
            "index": 0,
            "codec_name": "prores",
            "codec_long_name": "Apple ProRes (iCodec Pro)",
            "codec_type": "video",
            "codec_time_base": "1001/24000",
            "codec_tag_string": "apcn",
            "codec_tag": "0x6e637061",
            "width": 1920,
            "height": 1080,
            "coded_width": 1920,
            "coded_height": 1080,
            "has_b_frames": 0,
            "sample_aspect_ratio": "1:1",
            "display_aspect_ratio": "16:9",
            "pix_fmt": "yuv422p10le",
            "level": -99,
            "color_space": "bt709",
            "color_transfer": "bt709",
            "color_primaries": "bt709",
            "field_order": "progressive",
            "refs": 1,
            "r_frame_rate": "24000/1001",
            "avg_frame_rate": "24000/1001",
            "time_base": "1/24000",
            "start_pts": 0,
            "start_time": "0.000000",
            "duration_ts": 118118,
            "duration": "4.921583",
            "bit_rate": "113991517",
            "bits_per_raw_sample": "10",
            "nb_frames": "118",
            "disposition": {
                "default": 1,
                "dub": 0,
                "original": 0,
                "comment": 0,
                "lyrics": 0,
                "karaoke": 0,
                "forced": 0,
                "hearing_impaired": 0,
                "visual_impaired": 0,
                "clean_effects": 0,
                "attached_pic": 0,
                "timed_thumbnails": 0
            },
            "tags": {
                "creation_time": "2017-07-24T20:22:15.000000Z",
                "language": "und",
                "handler_name": "Core Media Data Handler",
                "encoder": "Apple ProRes 422",
                "timecode": "00:00:00:00"
            }
        },
        {
            "index": 1,
            "codec_name": "pcm_s24le",
            "codec_long_name": "PCM signed 24-bit little-endian",
            "codec_type": "audio",
            "codec_time_base": "1/48000",
            "codec_tag_string": "lpcm",
            "codec_tag": "0x6d63706c",
            "sample_fmt": "s32",
            "sample_rate": "48000",
            "channels": 2,
            "channel_layout": "stereo",
            "bits_per_sample": 24,
            "r_frame_rate": "0/0",
            "avg_frame_rate": "0/0",
            "time_base": "1/48000",
            "start_pts": 0,
            "start_time": "0.000000",
            "duration_ts": 236236,
            "duration": "4.921583",
            "bit_rate": "2304000",
            "bits_per_raw_sample": "24",
            "nb_frames": "236236",
            "disposition": {
                "default": 1,
                "dub": 0,
                "original": 0,
                "comment": 0,
                "lyrics": 0,
                "karaoke": 0,
                "forced": 0,
                "hearing_impaired": 0,
                "visual_impaired": 0,
                "clean_effects": 0,
                "attached_pic": 0,
                "timed_thumbnails": 0
            },
            "tags": {
                "creation_time": "2017-07-24T20:22:15.000000Z",
                "language": "und",
                "handler_name": "Core Media Data Handler"
            }
        },
        {
            "index": 2,
            "codec_type": "data",
            "codec_tag_string": "tmcd",
            "codec_tag": "0x64636d74",
            "r_frame_rate": "0/0",
            "avg_frame_rate": "24/1",
            "time_base": "1/24000",
            "start_pts": 0,
            "start_time": "0.000000",
            "duration_ts": 118118,
            "duration": "4.921583",
            "bit_rate": "6",
            "nb_frames": "1",
            "disposition": {
                "default": 1,
                "dub": 0,
                "original": 0,
                "comment": 0,
                "lyrics": 0,
                "karaoke": 0,
                "forced": 0,
                "hearing_impaired": 0,
                "visual_impaired": 0,
                "clean_effects": 0,
                "attached_pic": 0,
                "timed_thumbnails": 0
            },
            "tags": {
                "creation_time": "2017-07-24T20:22:15.000000Z",
                "language": "und",
                "handler_name": "Core Media Data Handler",
                "timecode": "00:00:00:00"
            }
        }
    ],
    "format": {
        "filename": "/Users/mk/Desktop/plane_gif.mov",
        "nb_streams": 3,
        "nb_programs": 0,
        "format_name": "mov,mp4,m4a,3gp,3g2,mj2",
        "format_long_name": "QuickTime / MOV",
        "start_time": "0.000000",
        "duration": "4.921583",
        "size": "71601438",
        "bit_rate": "116387654",
        "probe_score": 100,
        "tags": {
            "major_brand": "qt  ",
            "minor_version": "0",
            "compatible_brands": "qt  ",
            "creation_time": "2017-07-24T20:22:15.000000Z",
            "com.apple.quicktime.keywords": "6-30-17,5db",
            "com.apple.quicktime.description": "This video is about Untitled Project 1",
            "com.apple.quicktime.author": "Marlon Kuzmick",
            "com.apple.quicktime.displayname": "Untitled Project 1",
            "com.apple.quicktime.title": "Untitled Project 1"
        }
    }
}
